<svg width="26" height="26" viewBox="0 0 26 26" fill="none" xmlns="http://www.w3.org/2000/svg">
<mask id="mask0_11_28" style="mask-type:alpha" maskUnits="userSpaceOnUse" x="0" y="0" width="26" height="26">
<rect width="26" height="26" fill="#D9D9D9"/>
</mask>
<g mask="url(#mask0_11_28)">
<path d="M21.775 18.3625C22.082 18.525 22.3528 18.4889 22.5875 18.2542C22.8222 18.0194 22.8583 17.7486 22.6958 17.4417L21.125 14.5167L19.9875 17.4417L21.775 18.3625ZM16.3583 17.3333H17.6583L20.2583 10.8875C20.3125 10.743 20.299 10.6212 20.2177 10.5219C20.1365 10.4226 20.0417 10.3458 19.9333 10.2917L17.7667 9.42499C17.6042 9.37082 17.4462 9.38888 17.2927 9.47916C17.1392 9.56943 17.0445 9.69582 17.0083 9.85832L16.3583 17.3333ZM8.34168 17.3333H9.64168L8.99168 9.85832C8.95557 9.65971 8.86077 9.5243 8.7073 9.45207C8.55383 9.37985 8.39584 9.37082 8.23334 9.42499L6.06668 10.2917C5.92223 10.3458 5.81841 10.4226 5.75522 10.5219C5.69202 10.6212 5.68751 10.743 5.74168 10.8875L8.34168 17.3333ZM4.22501 18.3625L6.01251 17.4417L4.87501 14.5167L3.30418 17.4417C3.14168 17.7486 3.17779 18.0194 3.41251 18.2542C3.64723 18.4889 3.91807 18.525 4.22501 18.3625ZM11.8083 17.3333H14.1917L15.0042 8.17916C15.0403 8.01666 14.9997 7.87673 14.8823 7.75936C14.7649 7.642 14.625 7.58332 14.4625 7.58332H11.5375C11.3931 7.58332 11.2622 7.642 11.1448 7.75936C11.0274 7.87673 10.9778 8.01666 10.9958 8.17916L11.8083 17.3333ZM3.73751 20.5833C2.97918 20.5833 2.34723 20.2989 1.84168 19.7302C1.33612 19.1614 1.08334 18.4889 1.08334 17.7125C1.08334 17.4958 1.11494 17.2837 1.17814 17.076C1.24133 16.8684 1.31807 16.6653 1.40834 16.4667L3.79168 11.9167C3.5389 11.1944 3.54793 10.4812 3.81876 9.77707C4.08959 9.07291 4.56807 8.57638 5.25418 8.28749L7.42084 7.42082C7.67362 7.33055 7.9264 7.26735 8.17918 7.23124C8.43195 7.19513 8.68473 7.20416 8.93751 7.25832C9.19029 6.73471 9.54237 6.29686 9.99376 5.94478C10.4451 5.5927 10.9597 5.41666 11.5375 5.41666H14.4625C15.0403 5.41666 15.5549 5.5927 16.0063 5.94478C16.4576 6.29686 16.8097 6.73471 17.0625 7.25832C17.3153 7.22221 17.5681 7.2177 17.8208 7.24478C18.0736 7.27186 18.3264 7.33055 18.5792 7.42082L20.7458 8.28749C21.4681 8.57638 21.9736 9.07291 22.2625 9.77707C22.5514 10.4812 22.5333 11.1764 22.2083 11.8625L24.5917 16.4125C24.7 16.6111 24.7813 16.8187 24.8354 17.0354C24.8896 17.2521 24.9167 17.4778 24.9167 17.7125C24.9167 18.525 24.6413 19.2066 24.0906 19.7573C23.5399 20.308 22.8583 20.5833 22.0458 20.5833C21.8472 20.5833 21.6486 20.5608 21.45 20.5156C21.2514 20.4705 21.0528 20.4028 20.8542 20.3125L19.175 19.5H6.77084L5.25418 20.3125C5.01945 20.4389 4.77119 20.5156 4.50939 20.5427C4.24758 20.5698 3.99029 20.5833 3.73751 20.5833Z" fill="white"/>
</g>
</svg>
