<svg width="20" height="20" viewBox="0 0 20 20" fill="none" xmlns="http://www.w3.org/2000/svg">
<path d="M0.333313 19.75V17.5833H17.6666V19.75H0.333313ZM4.66665 15.4167C3.47498 15.4167 2.45484 14.9924 1.60623 14.1438C0.757619 13.2951 0.333313 12.275 0.333313 11.0833V0.25H17.6666C18.2625 0.25 18.7726 0.462153 19.1969 0.886458C19.6212 1.31076 19.8333 1.82083 19.8333 2.41667V5.66667C19.8333 6.2625 19.6212 6.77257 19.1969 7.19688C18.7726 7.62118 18.2625 7.83333 17.6666 7.83333H15.5V11.0833C15.5 12.275 15.0757 13.2951 14.2271 14.1438C13.3785 14.9924 12.3583 15.4167 11.1666 15.4167H4.66665ZM15.5 5.66667H17.6666V2.41667H15.5V5.66667ZM11.1666 13.25C11.7625 13.25 12.2725 13.0378 12.6969 12.6135C13.1212 12.1892 13.3333 11.6792 13.3333 11.0833V2.41667H6.83331V2.85L8.78331 4.42083C8.81942 4.45694 8.89165 4.60139 8.99998 4.85417V9.45833C8.99998 9.60278 8.94581 9.72917 8.83748 9.8375C8.72915 9.94583 8.60276 10 8.45831 10H4.12498C3.98054 10 3.85415 9.94583 3.74581 9.8375C3.63748 9.72917 3.58331 9.60278 3.58331 9.45833V4.85417C3.58331 4.81806 3.65554 4.67361 3.79998 4.42083L5.74998 2.85V2.41667H2.49998V11.0833C2.49998 11.6792 2.71213 12.1892 3.13644 12.6135C3.56074 13.0378 4.07081 13.25 4.66665 13.25H11.1666Z" fill="white"/>
</svg>
