<svg width="20" height="20" viewBox="0 0 20 20" fill="none" xmlns="http://www.w3.org/2000/svg">
<path d="M1.7396 19.75L0.222931 18.2333L11.3271 7.12917C11.0021 6.37083 10.957 5.51319 11.1917 4.55625C11.4264 3.59931 11.941 2.74167 12.7354 1.98333C13.6924 1.02639 14.7577 0.466667 15.9313 0.304167C17.1049 0.141667 18.0618 0.430556 18.8021 1.17083C19.5424 1.91111 19.8313 2.86806 19.6688 4.04167C19.5063 5.21528 18.9465 6.28056 17.9896 7.2375C17.2313 8.03195 16.3736 8.54653 15.4167 8.78125C14.4597 9.01597 13.6021 8.97083 12.8438 8.64583L11.4896 10L19.7229 18.2333L18.2063 19.75L9.97293 11.5708L1.7396 19.75ZM4.93543 10.4875L1.68543 7.2375C0.710431 6.2625 0.222931 5.09792 0.222931 3.74375C0.222931 2.38958 0.710431 1.225 1.68543 0.25L8.4021 7.02083L4.93543 10.4875Z" fill="white"/>
</svg>
