<svg width="22" height="21" viewBox="0 0 22 21" fill="none" xmlns="http://www.w3.org/2000/svg">
<path d="M10.8333 20.5833L0 4.33333C1.53472 3.03333 3.2184 1.98611 5.05104 1.19167C6.88368 0.397222 8.81111 0 10.8333 0C12.8556 0 14.783 0.392708 16.6156 1.17812C18.4483 1.96354 20.1319 3.01528 21.6667 4.33333L16.25 12.4583L10.8333 20.5833ZM10.8333 16.6833L18.7417 4.82083C17.5681 4.00833 16.3132 3.36285 14.9771 2.88437C13.641 2.4059 12.2597 2.16667 10.8333 2.16667C9.40695 2.16667 8.03021 2.4059 6.70313 2.88437C5.37604 3.36285 4.11667 4.00833 2.925 4.82083L10.8333 16.6833ZM8.125 7.58333C8.57639 7.58333 8.96007 7.42535 9.27604 7.10937C9.59201 6.7934 9.75 6.40972 9.75 5.95833C9.75 5.50694 9.59201 5.12326 9.27604 4.80729C8.96007 4.49132 8.57639 4.33333 8.125 4.33333C7.67361 4.33333 7.28993 4.49132 6.97396 4.80729C6.65799 5.12326 6.5 5.50694 6.5 5.95833C6.5 6.40972 6.65799 6.7934 6.97396 7.10937C7.28993 7.42535 7.67361 7.58333 8.125 7.58333ZM10.8333 13C11.2847 13 11.6684 12.842 11.9844 12.526C12.3003 12.2101 12.4583 11.8264 12.4583 11.375C12.4583 10.9236 12.3003 10.5399 11.9844 10.224C11.6684 9.90799 11.2847 9.75 10.8333 9.75C10.3819 9.75 9.99826 9.90799 9.68229 10.224C9.36632 10.5399 9.20833 10.9236 9.20833 11.375C9.20833 11.8264 9.36632 12.2101 9.68229 12.526C9.99826 12.842 10.3819 13 10.8333 13Z" fill="white"/>
</svg>
