<svg width="21" height="23" viewBox="0 0 21 23" fill="none" xmlns="http://www.w3.org/2000/svg">
<path d="M19.3667 22.5642L12.0167 14.8642C11.4333 15.3531 10.7625 15.7401 10.0042 16.0253C9.24583 16.3105 8.43889 16.4531 7.58333 16.4531C5.46389 16.4531 3.67014 15.6841 2.20208 14.1462C0.734028 12.6082 0 10.729 0 8.50865C0 6.28828 0.734028 4.40912 2.20208 2.87115C3.67014 1.33319 5.46389 0.564209 7.58333 0.564209C9.70278 0.564209 11.4965 1.33319 12.9646 2.87115C14.4326 4.40912 15.1667 6.28828 15.1667 8.50865C15.1667 9.40495 15.0306 10.2503 14.7583 11.0448C14.4861 11.8392 14.1167 12.542 13.65 13.1531L21 20.8531L19.3667 22.5642ZM7.58333 14.0087C9.04167 14.0087 10.2812 13.4739 11.3021 12.4045C12.3229 11.335 12.8333 10.0364 12.8333 8.50865C12.8333 6.98088 12.3229 5.68226 11.3021 4.61282C10.2812 3.54338 9.04167 3.00865 7.58333 3.00865C6.125 3.00865 4.88542 3.54338 3.86458 4.61282C2.84375 5.68226 2.33333 6.98088 2.33333 8.50865C2.33333 10.0364 2.84375 11.335 3.86458 12.4045C4.88542 13.4739 6.125 14.0087 7.58333 14.0087Z" fill="white"/>
</svg>
