<svg width="18" height="16" viewBox="0 0 18 16" fill="none" xmlns="http://www.w3.org/2000/svg">
<path d="M8.69565 6.02899V3.76812H6.08696V2.26087H8.69565V0H10.4348V2.26087H13.0435V3.76812H10.4348V6.02899H8.69565ZM5.21739 15.8261C4.73913 15.8261 4.32971 15.6785 3.98913 15.3833C3.64855 15.0882 3.47826 14.7333 3.47826 14.3188C3.47826 13.9043 3.64855 13.5495 3.98913 13.2543C4.32971 12.9592 4.73913 12.8116 5.21739 12.8116C5.69565 12.8116 6.10507 12.9592 6.44565 13.2543C6.78623 13.5495 6.95652 13.9043 6.95652 14.3188C6.95652 14.7333 6.78623 15.0882 6.44565 15.3833C6.10507 15.6785 5.69565 15.8261 5.21739 15.8261ZM13.913 15.8261C13.4348 15.8261 13.0254 15.6785 12.6848 15.3833C12.3442 15.0882 12.1739 14.7333 12.1739 14.3188C12.1739 13.9043 12.3442 13.5495 12.6848 13.2543C13.0254 12.9592 13.4348 12.8116 13.913 12.8116C14.3913 12.8116 14.8007 12.9592 15.1413 13.2543C15.4819 13.5495 15.6522 13.9043 15.6522 14.3188C15.6522 14.7333 15.4819 15.0882 15.1413 15.3833C14.8007 15.6785 14.3913 15.8261 13.913 15.8261ZM0 2.26087V0.753623H2.84783L6.54348 7.53623H12.6304L16.0217 2.26087H18L14.1739 8.25217C14.0145 8.50338 13.8007 8.69807 13.5326 8.83623C13.2645 8.9744 12.971 9.04348 12.6522 9.04348H6.17391L5.21739 10.5507H15.6522V12.058H5.21739C4.56522 12.058 4.06884 11.813 3.72826 11.3232C3.38768 10.8333 3.37681 10.3372 3.69565 9.83478L4.86956 7.98841L1.73913 2.26087H0Z" fill="white"/>
</svg>
